<mxfile host="app.diagrams.net" modified="2023-07-16T05:31:13.479Z" agent="Mozilla/5.0 (Windows NT 10.0; Win64; x64; rv:109.0) Gecko/20100101 Firefox/114.0" etag="GVf3jR_A9LhmsuH8kCkc" version="21.6.2" type="device">
  <diagram name="Halaman-1" id="mbcmMKHSCFAahfTxKbZ2">
    <mxGraphModel dx="1235" dy="678" grid="1" gridSize="10" guides="1" tooltips="1" connect="1" arrows="1" fold="1" page="1" pageScale="1" pageWidth="827" pageHeight="1169" math="0" shadow="0">
      <root>
        <mxCell id="0" />
        <mxCell id="1" parent="0" />
        <mxCell id="s5O4qmKQ3-V9o8_MaU5N-1" value="Start" style="html=1;dashed=0;whiteSpace=wrap;shape=mxgraph.dfd.start" vertex="1" parent="1">
          <mxGeometry x="170" y="40" width="80" height="30" as="geometry" />
        </mxCell>
        <mxCell id="s5O4qmKQ3-V9o8_MaU5N-2" value="" style="endArrow=classic;html=1;rounded=0;" edge="1" parent="1" source="s5O4qmKQ3-V9o8_MaU5N-1" target="s5O4qmKQ3-V9o8_MaU5N-3">
          <mxGeometry width="50" height="50" relative="1" as="geometry">
            <mxPoint x="390" y="320" as="sourcePoint" />
            <mxPoint x="440" y="270" as="targetPoint" />
          </mxGeometry>
        </mxCell>
        <mxCell id="s5O4qmKQ3-V9o8_MaU5N-3" value="Input &lt;br&gt;Registration" style="shape=parallelogram;perimeter=parallelogramPerimeter;whiteSpace=wrap;html=1;dashed=0;" vertex="1" parent="1">
          <mxGeometry x="160" y="110" width="100" height="40" as="geometry" />
        </mxCell>
        <mxCell id="s5O4qmKQ3-V9o8_MaU5N-4" value="Registration API" style="html=1;dashed=0;whiteSpace=wrap;" vertex="1" parent="1">
          <mxGeometry x="314" y="105" width="100" height="50" as="geometry" />
        </mxCell>
        <mxCell id="s5O4qmKQ3-V9o8_MaU5N-5" value="" style="endArrow=classic;html=1;rounded=0;" edge="1" parent="1" source="s5O4qmKQ3-V9o8_MaU5N-3" target="s5O4qmKQ3-V9o8_MaU5N-4">
          <mxGeometry width="50" height="50" relative="1" as="geometry">
            <mxPoint x="390" y="320" as="sourcePoint" />
            <mxPoint x="440" y="270" as="targetPoint" />
          </mxGeometry>
        </mxCell>
        <mxCell id="s5O4qmKQ3-V9o8_MaU5N-6" value="Account API" style="html=1;dashed=0;whiteSpace=wrap;" vertex="1" parent="1">
          <mxGeometry x="480" y="105" width="100" height="50" as="geometry" />
        </mxCell>
        <mxCell id="s5O4qmKQ3-V9o8_MaU5N-7" value="" style="endArrow=classic;html=1;rounded=0;" edge="1" parent="1" source="s5O4qmKQ3-V9o8_MaU5N-4" target="s5O4qmKQ3-V9o8_MaU5N-6">
          <mxGeometry width="50" height="50" relative="1" as="geometry">
            <mxPoint x="390" y="270" as="sourcePoint" />
            <mxPoint x="440" y="220" as="targetPoint" />
          </mxGeometry>
        </mxCell>
        <mxCell id="s5O4qmKQ3-V9o8_MaU5N-8" value="Check&lt;br&gt;Existing &lt;br&gt;Account" style="shape=rhombus;html=1;dashed=0;whiteSpace=wrap;perimeter=rhombusPerimeter;" vertex="1" parent="1">
          <mxGeometry x="630" y="88.75" width="100" height="82.5" as="geometry" />
        </mxCell>
        <mxCell id="s5O4qmKQ3-V9o8_MaU5N-9" value="" style="endArrow=classic;html=1;rounded=0;" edge="1" parent="1" source="s5O4qmKQ3-V9o8_MaU5N-6" target="s5O4qmKQ3-V9o8_MaU5N-8">
          <mxGeometry width="50" height="50" relative="1" as="geometry">
            <mxPoint x="370" y="270" as="sourcePoint" />
            <mxPoint x="420" y="220" as="targetPoint" />
          </mxGeometry>
        </mxCell>
        <mxCell id="s5O4qmKQ3-V9o8_MaU5N-10" value="" style="endArrow=classic;html=1;rounded=0;" edge="1" parent="1" source="s5O4qmKQ3-V9o8_MaU5N-8" target="s5O4qmKQ3-V9o8_MaU5N-1">
          <mxGeometry width="50" height="50" relative="1" as="geometry">
            <mxPoint x="370" y="270" as="sourcePoint" />
            <mxPoint x="420" y="220" as="targetPoint" />
            <Array as="points">
              <mxPoint x="680" y="55" />
            </Array>
          </mxGeometry>
        </mxCell>
        <mxCell id="s5O4qmKQ3-V9o8_MaU5N-11" value="Save New&lt;br&gt;Account" style="html=1;dashed=0;whiteSpace=wrap;" vertex="1" parent="1">
          <mxGeometry x="800" y="105" width="100" height="50" as="geometry" />
        </mxCell>
        <mxCell id="s5O4qmKQ3-V9o8_MaU5N-12" value="" style="endArrow=classic;html=1;rounded=0;" edge="1" parent="1" source="s5O4qmKQ3-V9o8_MaU5N-8" target="s5O4qmKQ3-V9o8_MaU5N-11">
          <mxGeometry width="50" height="50" relative="1" as="geometry">
            <mxPoint x="370" y="270" as="sourcePoint" />
            <mxPoint x="420" y="220" as="targetPoint" />
            <Array as="points" />
          </mxGeometry>
        </mxCell>
        <mxCell id="s5O4qmKQ3-V9o8_MaU5N-13" value="Input &lt;br&gt;Login" style="shape=parallelogram;perimeter=parallelogramPerimeter;whiteSpace=wrap;html=1;dashed=0;" vertex="1" parent="1">
          <mxGeometry x="160" y="220" width="100" height="50" as="geometry" />
        </mxCell>
        <mxCell id="s5O4qmKQ3-V9o8_MaU5N-14" value="" style="endArrow=classic;html=1;rounded=0;" edge="1" parent="1" source="s5O4qmKQ3-V9o8_MaU5N-1" target="s5O4qmKQ3-V9o8_MaU5N-13">
          <mxGeometry width="50" height="50" relative="1" as="geometry">
            <mxPoint x="220" y="80" as="sourcePoint" />
            <mxPoint x="220" y="120" as="targetPoint" />
            <Array as="points">
              <mxPoint x="130" y="55" />
              <mxPoint x="130" y="245" />
            </Array>
          </mxGeometry>
        </mxCell>
        <mxCell id="s5O4qmKQ3-V9o8_MaU5N-15" value="Verification" style="shape=rhombus;html=1;dashed=0;whiteSpace=wrap;perimeter=rhombusPerimeter;" vertex="1" parent="1">
          <mxGeometry x="326" y="210" width="76" height="70" as="geometry" />
        </mxCell>
        <mxCell id="s5O4qmKQ3-V9o8_MaU5N-16" value="" style="endArrow=classic;html=1;rounded=0;entryX=0.75;entryY=0;entryDx=0;entryDy=0;" edge="1" parent="1" source="s5O4qmKQ3-V9o8_MaU5N-15" target="s5O4qmKQ3-V9o8_MaU5N-13">
          <mxGeometry width="50" height="50" relative="1" as="geometry">
            <mxPoint x="470" y="270" as="sourcePoint" />
            <mxPoint x="520" y="220" as="targetPoint" />
            <Array as="points">
              <mxPoint x="364" y="200" />
              <mxPoint x="235" y="200" />
            </Array>
          </mxGeometry>
        </mxCell>
        <mxCell id="s5O4qmKQ3-V9o8_MaU5N-17" value="" style="endArrow=classic;html=1;rounded=0;" edge="1" parent="1" source="s5O4qmKQ3-V9o8_MaU5N-13" target="s5O4qmKQ3-V9o8_MaU5N-15">
          <mxGeometry width="50" height="50" relative="1" as="geometry">
            <mxPoint x="470" y="270" as="sourcePoint" />
            <mxPoint x="520" y="220" as="targetPoint" />
          </mxGeometry>
        </mxCell>
        <mxCell id="s5O4qmKQ3-V9o8_MaU5N-18" value="Account API" style="html=1;dashed=0;whiteSpace=wrap;" vertex="1" parent="1">
          <mxGeometry x="450" y="220" width="100" height="50" as="geometry" />
        </mxCell>
        <mxCell id="s5O4qmKQ3-V9o8_MaU5N-20" value="" style="endArrow=classic;html=1;rounded=0;" edge="1" parent="1" source="s5O4qmKQ3-V9o8_MaU5N-15" target="s5O4qmKQ3-V9o8_MaU5N-18">
          <mxGeometry width="50" height="50" relative="1" as="geometry">
            <mxPoint x="424" y="140" as="sourcePoint" />
            <mxPoint x="490" y="140" as="targetPoint" />
          </mxGeometry>
        </mxCell>
        <mxCell id="s5O4qmKQ3-V9o8_MaU5N-22" value="Get All &lt;br&gt;Account" style="html=1;dashed=0;whiteSpace=wrap;" vertex="1" parent="1">
          <mxGeometry x="590" y="220" width="80" height="50" as="geometry" />
        </mxCell>
        <mxCell id="s5O4qmKQ3-V9o8_MaU5N-23" value="" style="endArrow=classic;html=1;rounded=0;" edge="1" parent="1" source="s5O4qmKQ3-V9o8_MaU5N-18" target="s5O4qmKQ3-V9o8_MaU5N-22">
          <mxGeometry width="50" height="50" relative="1" as="geometry">
            <mxPoint x="650" y="270" as="sourcePoint" />
            <mxPoint x="700" y="220" as="targetPoint" />
          </mxGeometry>
        </mxCell>
        <mxCell id="s5O4qmKQ3-V9o8_MaU5N-24" value="Loan API" style="html=1;dashed=0;whiteSpace=wrap;" vertex="1" parent="1">
          <mxGeometry x="710" y="220" width="80" height="50" as="geometry" />
        </mxCell>
        <mxCell id="s5O4qmKQ3-V9o8_MaU5N-25" value="Get All Loan&lt;br&gt;By Accout Number" style="html=1;dashed=0;whiteSpace=wrap;" vertex="1" parent="1">
          <mxGeometry x="820" y="220" width="110" height="50" as="geometry" />
        </mxCell>
        <mxCell id="s5O4qmKQ3-V9o8_MaU5N-26" value="" style="endArrow=classic;html=1;rounded=0;" edge="1" parent="1" source="s5O4qmKQ3-V9o8_MaU5N-22" target="s5O4qmKQ3-V9o8_MaU5N-24">
          <mxGeometry width="50" height="50" relative="1" as="geometry">
            <mxPoint x="650" y="270" as="sourcePoint" />
            <mxPoint x="700" y="220" as="targetPoint" />
          </mxGeometry>
        </mxCell>
        <mxCell id="s5O4qmKQ3-V9o8_MaU5N-27" value="" style="endArrow=classic;html=1;rounded=0;" edge="1" parent="1" source="s5O4qmKQ3-V9o8_MaU5N-24" target="s5O4qmKQ3-V9o8_MaU5N-25">
          <mxGeometry width="50" height="50" relative="1" as="geometry">
            <mxPoint x="650" y="270" as="sourcePoint" />
            <mxPoint x="700" y="220" as="targetPoint" />
          </mxGeometry>
        </mxCell>
        <mxCell id="s5O4qmKQ3-V9o8_MaU5N-28" value="Show Data&lt;br&gt;Account &amp;amp; Debt" style="html=1;dashed=0;whiteSpace=wrap;" vertex="1" parent="1">
          <mxGeometry x="690" y="300" width="100" height="50" as="geometry" />
        </mxCell>
        <mxCell id="s5O4qmKQ3-V9o8_MaU5N-29" value="" style="endArrow=classic;html=1;rounded=0;" edge="1" parent="1" source="s5O4qmKQ3-V9o8_MaU5N-25" target="s5O4qmKQ3-V9o8_MaU5N-28">
          <mxGeometry width="50" height="50" relative="1" as="geometry">
            <mxPoint x="420" y="270" as="sourcePoint" />
            <mxPoint x="470" y="220" as="targetPoint" />
            <Array as="points">
              <mxPoint x="875" y="325" />
            </Array>
          </mxGeometry>
        </mxCell>
        <mxCell id="s5O4qmKQ3-V9o8_MaU5N-32" value="Input Loan&lt;br&gt;Request" style="shape=parallelogram;perimeter=parallelogramPerimeter;whiteSpace=wrap;html=1;dashed=0;" vertex="1" parent="1">
          <mxGeometry x="530" y="300" width="100" height="50" as="geometry" />
        </mxCell>
        <mxCell id="s5O4qmKQ3-V9o8_MaU5N-33" value="" style="endArrow=classic;html=1;rounded=0;" edge="1" parent="1" source="s5O4qmKQ3-V9o8_MaU5N-28" target="s5O4qmKQ3-V9o8_MaU5N-32">
          <mxGeometry width="50" height="50" relative="1" as="geometry">
            <mxPoint x="460" y="270" as="sourcePoint" />
            <mxPoint x="510" y="220" as="targetPoint" />
          </mxGeometry>
        </mxCell>
        <mxCell id="s5O4qmKQ3-V9o8_MaU5N-35" value="Loan API" style="html=1;dashed=0;whiteSpace=wrap;" vertex="1" parent="1">
          <mxGeometry x="400" y="300" width="100" height="50" as="geometry" />
        </mxCell>
        <mxCell id="s5O4qmKQ3-V9o8_MaU5N-36" value="" style="endArrow=classic;html=1;rounded=0;" edge="1" parent="1" source="s5O4qmKQ3-V9o8_MaU5N-32" target="s5O4qmKQ3-V9o8_MaU5N-35">
          <mxGeometry width="50" height="50" relative="1" as="geometry">
            <mxPoint x="460" y="270" as="sourcePoint" />
            <mxPoint x="510" y="220" as="targetPoint" />
          </mxGeometry>
        </mxCell>
        <mxCell id="s5O4qmKQ3-V9o8_MaU5N-37" value="Check&lt;br&gt;Current Loan" style="shape=rhombus;html=1;dashed=0;whiteSpace=wrap;perimeter=rhombusPerimeter;" vertex="1" parent="1">
          <mxGeometry x="150" y="350" width="120" height="100" as="geometry" />
        </mxCell>
        <mxCell id="s5O4qmKQ3-V9o8_MaU5N-38" value="" style="endArrow=classic;html=1;rounded=0;" edge="1" parent="1" source="s5O4qmKQ3-V9o8_MaU5N-35" target="s5O4qmKQ3-V9o8_MaU5N-37">
          <mxGeometry width="50" height="50" relative="1" as="geometry">
            <mxPoint x="460" y="270" as="sourcePoint" />
            <mxPoint x="510" y="220" as="targetPoint" />
            <Array as="points">
              <mxPoint x="210" y="325" />
            </Array>
          </mxGeometry>
        </mxCell>
        <mxCell id="s5O4qmKQ3-V9o8_MaU5N-39" value="" style="endArrow=classic;html=1;rounded=0;" edge="1" parent="1" source="s5O4qmKQ3-V9o8_MaU5N-37" target="s5O4qmKQ3-V9o8_MaU5N-28">
          <mxGeometry width="50" height="50" relative="1" as="geometry">
            <mxPoint x="460" y="330" as="sourcePoint" />
            <mxPoint x="510" y="280" as="targetPoint" />
            <Array as="points">
              <mxPoint x="740" y="400" />
            </Array>
          </mxGeometry>
        </mxCell>
        <mxCell id="s5O4qmKQ3-V9o8_MaU5N-40" value="&lt;font style=&quot;font-size: 11px;&quot;&gt;Check Limit&lt;br&gt;Amount &amp;amp; Teno&lt;/font&gt;r" style="shape=rhombus;html=1;dashed=0;whiteSpace=wrap;perimeter=rhombusPerimeter;" vertex="1" parent="1">
          <mxGeometry x="147.5" y="490" width="125" height="110" as="geometry" />
        </mxCell>
        <mxCell id="s5O4qmKQ3-V9o8_MaU5N-41" value="" style="endArrow=classic;html=1;rounded=0;" edge="1" parent="1" source="s5O4qmKQ3-V9o8_MaU5N-37" target="s5O4qmKQ3-V9o8_MaU5N-40">
          <mxGeometry width="50" height="50" relative="1" as="geometry">
            <mxPoint x="460" y="430" as="sourcePoint" />
            <mxPoint x="510" y="380" as="targetPoint" />
          </mxGeometry>
        </mxCell>
        <mxCell id="s5O4qmKQ3-V9o8_MaU5N-42" value="" style="endArrow=classic;html=1;rounded=0;entryX=0.7;entryY=1.017;entryDx=0;entryDy=0;entryPerimeter=0;" edge="1" parent="1" source="s5O4qmKQ3-V9o8_MaU5N-40" target="s5O4qmKQ3-V9o8_MaU5N-28">
          <mxGeometry width="50" height="50" relative="1" as="geometry">
            <mxPoint x="460" y="470" as="sourcePoint" />
            <mxPoint x="510" y="420" as="targetPoint" />
            <Array as="points">
              <mxPoint x="760" y="545" />
              <mxPoint x="760" y="450" />
            </Array>
          </mxGeometry>
        </mxCell>
        <mxCell id="s5O4qmKQ3-V9o8_MaU5N-43" value="Proceed&lt;br&gt;Loan Request" style="html=1;dashed=0;whiteSpace=wrap;" vertex="1" parent="1">
          <mxGeometry x="160" y="630" width="100" height="50" as="geometry" />
        </mxCell>
        <mxCell id="s5O4qmKQ3-V9o8_MaU5N-44" value="" style="endArrow=classic;html=1;rounded=0;" edge="1" parent="1" source="s5O4qmKQ3-V9o8_MaU5N-40" target="s5O4qmKQ3-V9o8_MaU5N-43">
          <mxGeometry width="50" height="50" relative="1" as="geometry">
            <mxPoint x="460" y="550" as="sourcePoint" />
            <mxPoint x="510" y="500" as="targetPoint" />
          </mxGeometry>
        </mxCell>
        <mxCell id="s5O4qmKQ3-V9o8_MaU5N-45" value="Loan History API" style="html=1;dashed=0;whiteSpace=wrap;" vertex="1" parent="1">
          <mxGeometry x="340" y="630" width="100" height="50" as="geometry" />
        </mxCell>
        <mxCell id="s5O4qmKQ3-V9o8_MaU5N-46" value="Save Loan &lt;br&gt;History Request" style="html=1;dashed=0;whiteSpace=wrap;" vertex="1" parent="1">
          <mxGeometry x="480" y="630" width="100" height="50" as="geometry" />
        </mxCell>
        <mxCell id="s5O4qmKQ3-V9o8_MaU5N-47" value="" style="endArrow=classic;html=1;rounded=0;" edge="1" parent="1" source="s5O4qmKQ3-V9o8_MaU5N-40" target="s5O4qmKQ3-V9o8_MaU5N-45">
          <mxGeometry width="50" height="50" relative="1" as="geometry">
            <mxPoint x="460" y="610" as="sourcePoint" />
            <mxPoint x="510" y="560" as="targetPoint" />
            <Array as="points">
              <mxPoint x="390" y="545" />
            </Array>
          </mxGeometry>
        </mxCell>
        <mxCell id="s5O4qmKQ3-V9o8_MaU5N-48" value="" style="endArrow=classic;html=1;rounded=0;" edge="1" parent="1" source="s5O4qmKQ3-V9o8_MaU5N-45" target="s5O4qmKQ3-V9o8_MaU5N-46">
          <mxGeometry width="50" height="50" relative="1" as="geometry">
            <mxPoint x="460" y="610" as="sourcePoint" />
            <mxPoint x="510" y="560" as="targetPoint" />
          </mxGeometry>
        </mxCell>
        <mxCell id="s5O4qmKQ3-V9o8_MaU5N-49" value="" style="endArrow=classic;html=1;rounded=0;" edge="1" parent="1" source="s5O4qmKQ3-V9o8_MaU5N-43" target="s5O4qmKQ3-V9o8_MaU5N-45">
          <mxGeometry width="50" height="50" relative="1" as="geometry">
            <mxPoint x="220" y="610" as="sourcePoint" />
            <mxPoint x="220" y="640" as="targetPoint" />
          </mxGeometry>
        </mxCell>
        <mxCell id="s5O4qmKQ3-V9o8_MaU5N-50" value="" style="endArrow=classic;html=1;rounded=0;" edge="1" parent="1" source="s5O4qmKQ3-V9o8_MaU5N-43" target="s5O4qmKQ3-V9o8_MaU5N-51">
          <mxGeometry width="50" height="50" relative="1" as="geometry">
            <mxPoint x="460" y="630" as="sourcePoint" />
            <mxPoint x="210" y="720" as="targetPoint" />
          </mxGeometry>
        </mxCell>
        <mxCell id="s5O4qmKQ3-V9o8_MaU5N-51" value="Notification API" style="html=1;dashed=0;whiteSpace=wrap;" vertex="1" parent="1">
          <mxGeometry x="160" y="720" width="100" height="50" as="geometry" />
        </mxCell>
        <mxCell id="s5O4qmKQ3-V9o8_MaU5N-52" value="" style="endArrow=classic;html=1;rounded=0;" edge="1" parent="1" source="s5O4qmKQ3-V9o8_MaU5N-51" target="s5O4qmKQ3-V9o8_MaU5N-53">
          <mxGeometry width="50" height="50" relative="1" as="geometry">
            <mxPoint x="460" y="630" as="sourcePoint" />
            <mxPoint x="340" y="745" as="targetPoint" />
          </mxGeometry>
        </mxCell>
        <mxCell id="s5O4qmKQ3-V9o8_MaU5N-53" value="Send Notification&lt;br&gt;Loan Approval" style="html=1;dashed=0;whiteSpace=wrap;" vertex="1" parent="1">
          <mxGeometry x="314" y="720" width="100" height="50" as="geometry" />
        </mxCell>
        <mxCell id="s5O4qmKQ3-V9o8_MaU5N-54" value="" style="endArrow=classic;html=1;rounded=0;" edge="1" parent="1" source="s5O4qmKQ3-V9o8_MaU5N-53" target="s5O4qmKQ3-V9o8_MaU5N-55">
          <mxGeometry width="50" height="50" relative="1" as="geometry">
            <mxPoint x="460" y="690" as="sourcePoint" />
            <mxPoint x="364" y="810" as="targetPoint" />
          </mxGeometry>
        </mxCell>
        <mxCell id="s5O4qmKQ3-V9o8_MaU5N-55" value="End" style="html=1;dashed=0;whiteSpace=wrap;shape=mxgraph.dfd.start" vertex="1" parent="1">
          <mxGeometry x="324" y="820" width="80" height="30" as="geometry" />
        </mxCell>
        <mxCell id="s5O4qmKQ3-V9o8_MaU5N-57" value="Yes" style="text;html=1;strokeColor=none;fillColor=none;align=center;verticalAlign=middle;whiteSpace=wrap;rounded=0;" vertex="1" parent="1">
          <mxGeometry x="670" y="47.5" width="60" height="30" as="geometry" />
        </mxCell>
        <mxCell id="s5O4qmKQ3-V9o8_MaU5N-58" value="No" style="text;html=1;strokeColor=none;fillColor=none;align=center;verticalAlign=middle;whiteSpace=wrap;rounded=0;" vertex="1" parent="1">
          <mxGeometry x="740" y="100" width="60" height="30" as="geometry" />
        </mxCell>
        <mxCell id="s5O4qmKQ3-V9o8_MaU5N-59" value="" style="endArrow=classic;html=1;rounded=0;entryX=0.5;entryY=0;entryDx=0;entryDy=0;exitX=1;exitY=0.5;exitDx=0;exitDy=0;" edge="1" parent="1" source="s5O4qmKQ3-V9o8_MaU5N-8" target="s5O4qmKQ3-V9o8_MaU5N-13">
          <mxGeometry width="50" height="50" relative="1" as="geometry">
            <mxPoint x="450" y="400" as="sourcePoint" />
            <mxPoint x="500" y="350" as="targetPoint" />
            <Array as="points">
              <mxPoint x="760" y="130" />
              <mxPoint x="760" y="180" />
              <mxPoint x="210" y="180" />
            </Array>
          </mxGeometry>
        </mxCell>
        <mxCell id="s5O4qmKQ3-V9o8_MaU5N-61" value="No" style="text;html=1;strokeColor=none;fillColor=none;align=center;verticalAlign=middle;whiteSpace=wrap;rounded=0;" vertex="1" parent="1">
          <mxGeometry x="344" y="190" width="60" height="30" as="geometry" />
        </mxCell>
        <mxCell id="s5O4qmKQ3-V9o8_MaU5N-62" value="Yes" style="text;html=1;strokeColor=none;fillColor=none;align=center;verticalAlign=middle;whiteSpace=wrap;rounded=0;" vertex="1" parent="1">
          <mxGeometry x="384" y="220" width="60" height="30" as="geometry" />
        </mxCell>
        <mxCell id="s5O4qmKQ3-V9o8_MaU5N-63" value="Yes" style="text;html=1;strokeColor=none;fillColor=none;align=center;verticalAlign=middle;whiteSpace=wrap;rounded=0;" vertex="1" parent="1">
          <mxGeometry x="200" y="450" width="60" height="30" as="geometry" />
        </mxCell>
        <mxCell id="s5O4qmKQ3-V9o8_MaU5N-64" value="No" style="text;html=1;strokeColor=none;fillColor=none;align=center;verticalAlign=middle;whiteSpace=wrap;rounded=0;" vertex="1" parent="1">
          <mxGeometry x="266" y="370" width="60" height="30" as="geometry" />
        </mxCell>
        <mxCell id="s5O4qmKQ3-V9o8_MaU5N-65" value="No" style="text;html=1;strokeColor=none;fillColor=none;align=center;verticalAlign=middle;whiteSpace=wrap;rounded=0;" vertex="1" parent="1">
          <mxGeometry x="270" y="520" width="60" height="30" as="geometry" />
        </mxCell>
        <mxCell id="s5O4qmKQ3-V9o8_MaU5N-67" value="Yes" style="text;html=1;strokeColor=none;fillColor=none;align=center;verticalAlign=middle;whiteSpace=wrap;rounded=0;" vertex="1" parent="1">
          <mxGeometry x="200" y="600" width="60" height="30" as="geometry" />
        </mxCell>
      </root>
    </mxGraphModel>
  </diagram>
</mxfile>
